<svg width="900" height="1600" viewBox="0 0 900 1600" fill="none" xmlns="http://www.w3.org/2000/svg">
  <rect width="900" height="1600" rx="64" fill="#ECFBFF"/>
  <rect x="54" y="86" width="792" height="368" rx="40" fill="white" stroke="#B9EDFF" stroke-width="8"/>
  <circle cx="718" cy="184" r="74" fill="#FBF27B"/>
  <text x="100" y="206" fill="#1B77FF" font-family="Trebuchet MS, Segoe UI, sans-serif" font-size="78" font-weight="700">BlockTodo</text>
  <text x="100" y="288" fill="#395472" font-family="Trebuchet MS, Segoe UI, sans-serif" font-size="32">Your task board, secured on Base.</text>
  <rect x="54" y="502" width="792" height="222" rx="36" fill="#0D4AA5"/>
  <rect x="104" y="578" width="296" height="24" rx="12" fill="#FBF27B"/>
  <rect x="104" y="628" width="218" height="18" rx="9" fill="white" fill-opacity="0.7"/>
  <rect x="54" y="778" width="792" height="270" rx="36" fill="white" stroke="#B9EDFF" stroke-width="8"/>
  <rect x="102" y="844" width="488" height="26" rx="13" fill="#8FD8FF"/>
  <rect x="102" y="904" width="604" height="26" rx="13" fill="#8FD8FF" fill-opacity="0.7"/>
  <rect x="102" y="964" width="270" height="72" rx="24" fill="#1B77FF"/>
  <rect x="54" y="1102" width="792" height="356" rx="36" fill="white" stroke="#B9EDFF" stroke-width="8"/>
  <rect x="102" y="1180" width="694" height="132" rx="28" fill="#F7FDFF"/>
  <rect x="626" y="1220" width="122" height="42" rx="21" fill="#FBF27B"/>
</svg>
